<svg width="61" height="91" viewBox="0 0 61 91" fill="none" xmlns="http://www.w3.org/2000/svg">
<path d="M0.224 83.704L32.992 49.144C36.32 45.7307 38.9227 42.7867 40.8 40.312C42.6773 37.752 44 35.4053 44.768 33.272C45.6213 31.1387 46.048 28.92 46.048 26.616C46.048 22.0933 44.5973 18.552 41.696 15.992C38.7947 13.432 35.04 12.152 30.432 12.152C25.9093 12.152 21.9413 13.2613 18.528 15.48C15.1147 17.6133 12.0853 20.9413 9.44 25.464L0.992 18.424C4.49067 12.6213 8.71467 8.26933 13.664 5.368C18.6133 2.38133 24.3307 0.887993 30.816 0.887993C36.2773 0.887993 41.0133 1.95466 45.024 4.088C49.12 6.22133 52.2773 9.208 54.496 13.048C56.7147 16.888 57.824 21.368 57.824 26.488C57.824 30.1573 57.3547 33.4427 56.416 36.344C55.5627 39.2453 53.984 42.232 51.68 45.304C49.4613 48.2907 46.3467 51.8747 42.336 56.056L15.84 83.32L0.224 83.704ZM0.224 91V83.704L10.464 80.248H59.872V91H0.224Z" fill="#3BC9DB" fill-opacity="0.2"/>
</svg>
