<svg width="61" height="91" viewBox="0 0 61 91" fill="none" xmlns="http://www.w3.org/2000/svg">
<path d="M28.616 90.28C22.8133 90.28 17.5227 89.2133 12.744 87.08C8.05067 84.8613 4.08267 81.6613 0.84 77.48L9.032 69.288C10.9947 72.2747 13.6827 74.664 17.096 76.456C20.5093 78.1627 24.3067 79.016 28.488 79.016C32.4133 79.016 35.784 78.2907 38.6 76.84C41.5013 75.304 43.7627 73.1707 45.384 70.44C47.0907 67.7093 47.944 64.552 47.944 60.968C47.944 57.2987 47.0907 54.1413 45.384 51.496C43.7627 48.7653 41.4587 46.6747 38.472 45.224C35.4853 43.7733 31.944 43.048 27.848 43.048C26.312 43.048 24.776 43.176 23.24 43.432C21.704 43.6027 20.2107 43.9013 18.76 44.328L23.88 37.416C25.5013 36.648 27.2507 36.0507 29.128 35.624C31.0053 35.1973 32.8827 34.984 34.76 34.984C39.5387 34.984 43.8053 36.0933 47.56 38.312C51.4 40.5307 54.4293 43.6453 56.648 47.656C58.952 51.6667 60.104 56.3173 60.104 61.608C60.104 67.24 58.7387 72.232 56.008 76.584C53.3627 80.8507 49.6933 84.2213 45 86.696C40.3067 89.0853 34.8453 90.28 28.616 90.28ZM18.76 44.328V37.032L44.744 7.464L59.08 7.336L32.328 37.672L18.76 44.328ZM5.064 10.92V0.167999H59.08V7.336L48.584 10.92H5.064Z" fill="#3BC9DB" fill-opacity="0.2"/>
</svg>
