<svg width="8" height="8" viewBox="0 0 8 8" fill="none" xmlns="http://www.w3.org/2000/svg">
<path d="M6.18523 7.65387C6.09017 7.65387 5.99558 7.6247 5.91417 7.56658L4.00005 6.19387L2.08594 7.56658C1.92288 7.68328 1.70405 7.68328 1.54194 7.5647C1.37982 7.44728 1.31158 7.23881 1.37229 7.04846L2.08617 4.74446L0.189233 3.40776C0.028057 3.28894 -0.0390018 3.08 0.0226452 2.88941C0.0847628 2.69929 0.261704 2.57011 0.461703 2.5687L2.81111 2.56517L3.55911 0.318352C3.62217 0.128 3.79982 0 4.00005 0C4.20029 0 4.37793 0.128235 4.44123 0.318352L5.17652 2.56517L7.53793 2.5687C7.73864 2.57011 7.91581 2.69953 7.97722 2.88941C8.03911 3.08 7.97205 3.28894 7.81064 3.40776L5.9137 4.74446L6.62758 7.04846C6.68875 7.23881 6.61981 7.44728 6.45817 7.5647C6.37652 7.62446 6.28099 7.65387 6.18523 7.65387Z" fill="#FFAC33"/>
</svg>
